<svg xmlns="http://www.w3.org/2000/svg" width="40" height="40" viewBox="0 0 40 40">
  <g id="finger_drag_dark" transform="translate(-3312 -1360)">
    <g id="closed_Hand" data-name="closed Hand" transform="translate(2720.573 1133.385) rotate(-45)" fill="#ccc" fill-rule="evenodd">
      <path d="M 266.3607482910156 621.5121459960938 L 266.277099609375 621.5121459960938 L 266.0436401367188 621.5121459960938 L 254.4826812744141 621.5121459960938 L 254.2894592285156 621.5121459960938 L 254.1914978027344 621.5121459960938 L 254.1007690429688 621.4751586914062 L 253.9035339355469 621.394775390625 L 253.8857116699219 621.3875122070312 L 253.8685150146484 621.37890625 L 253.635009765625 621.2620849609375 L 253.5654907226562 621.227294921875 L 253.5098266601562 621.173095703125 L 253.3528747558594 621.0202026367188 L 253.3279571533203 620.9959106445312 L 253.3066558837891 620.9684448242188 L 253.1536865234375 620.7711791992188 L 253.1251678466797 620.7344360351562 L 253.1039276123047 620.6930541992188 L 253.0233917236328 620.5360717773438 L 253.0054016113281 620.5009765625 L 252.9931182861328 620.4635009765625 L 252.9166259765625 620.2301025390625 L 252.9052276611328 620.1953125 L 252.8990173339844 620.1592407226562 L 252.8587951660156 619.9256591796875 L 252.8546752929688 619.9017333984375 L 252.8529052734375 619.8775024414062 L 252.8167877197266 619.3869018554688 L 252.6856384277344 618.9631958007812 L 252.5311279296875 618.6187744140625 L 252.2765655517578 618.30224609375 L 246.7554779052734 612.9335327148438 L 246.4387359619141 612.6206665039062 L 246.3791351318359 612.561767578125 L 246.3419799804688 612.4867553710938 L 246.1487579345703 612.0963134765625 L 246.1299896240234 612.058349609375 L 246.1178588867188 612.017822265625 L 246.0010986328125 611.62744140625 L 245.9868927001953 611.5799560546875 L 245.9822845458984 611.5306396484375 L 245.9420471191406 611.099853515625 L 245.9398803710938 611.07666015625 L 245.9398803710938 611.0533447265625 L 245.9398803710938 606.951416015625 L 245.9398803710938 606.9257202148438 L 245.9425201416016 606.900146484375 L 245.9827575683594 606.509765625 L 245.9883880615234 606.455078125 L 246.0057678222656 606.4029541015625 L 246.1225433349609 606.0526123046875 L 246.1370239257812 606.0091552734375 L 246.1591339111328 605.9691162109375 L 246.3523559570312 605.6190185546875 L 246.3781433105469 605.572265625 L 246.4132232666016 605.5320434570312 L 246.6869812011719 605.218017578125 L 246.6982116699219 605.2051391601562 L 246.7102966308594 605.1930541992188 L 246.9839935302734 604.9193115234375 L 247.0421142578125 604.8611450195312 L 247.1157989501953 604.82470703125 L 247.5062561035156 604.6314697265625 L 247.5295257568359 604.6199340820312 L 247.5538482666016 604.6109008789062 L 247.8678588867188 604.4942016601562 L 247.9521331787109 604.462890625 L 248.0420379638672 604.462890625 L 248.4686737060547 604.462890625 L 248.859130859375 604.462890625 L 248.9322509765625 604.462890625 L 249.0023193359375 604.4838256835938 L 249.3927764892578 604.6005249023438 L 249.4429931640625 604.6155395507812 L 249.489013671875 604.640625 L 249.8432769775391 604.8338623046875 L 249.906494140625 604.8683471679688 L 249.9574127197266 604.9192504882812 L 250.2311401367188 605.1929931640625 L 250.2445373535156 605.2064208984375 L 250.2568664550781 605.2207641601562 L 250.3822479248047 605.3667602539062 L 249.9721374511719 594.4899291992188 L 249.9708862304688 594.4569091796875 L 249.9739990234375 594.424072265625 L 250.0142974853516 593.9973754882812 L 250.01708984375 593.9678955078125 L 250.0233459472656 593.9389038085938 L 250.0998077392578 593.584716796875 L 250.1157684326172 593.5108032226562 L 250.1529083251953 593.4448852539062 L 250.3501586914062 593.0946655273438 L 250.3752593994141 593.050048828125 L 250.4088745117188 593.011474609375 L 250.6826171875 592.6974487304688 L 250.6950836181641 592.68310546875 L 250.7086029052734 592.6697998046875 L 250.9822692871094 592.400146484375 L 251.0297546386719 592.3533325195312 L 251.0878753662109 592.3206176757812 L 251.4380950927734 592.1234130859375 L 251.5033874511719 592.086669921875 L 251.5765991210938 592.0706176757812 L 251.9268188476562 591.9940185546875 L 251.9567565917969 591.9874877929688 L 251.9872894287109 591.984619140625 L 252.4180450439453 591.9445190429688 L 252.466796875 591.9400024414062 L 252.5154876708984 591.9450073242188 L 252.9059143066406 591.985107421875 L 252.9286651611328 591.9874267578125 L 252.9510955810547 591.9918212890625 L 253.341552734375 592.0684204101562 L 253.4205169677734 592.0839233398438 L 253.4906311035156 592.1234130859375 L 253.8408355712891 592.3206176757812 L 253.8989105224609 592.3533325195312 L 253.9463958740234 592.4000854492188 L 254.2201385498047 592.6697387695312 L 254.2336578369141 592.68310546875 L 254.2461547851562 592.6973876953125 L 254.5199127197266 593.011474609375 L 254.5610198974609 593.0586547851562 L 254.5892486572266 593.114501953125 L 254.7864990234375 593.5048217773438 L 254.8030090332031 593.5374755859375 L 254.8145904541016 593.572265625 L 254.9313201904297 593.9224853515625 L 254.9494781494141 593.9769287109375 L 254.9548187255859 594.0341186523438 L 254.9950256347656 594.4649658203125 L 254.9957885742188 594.4730834960938 L 254.9962768554688 594.481201171875 L 255.3980712890625 601.1211547851562 L 255.6049346923828 600.739501953125 L 255.6395874023438 600.6755981445312 L 255.6909790039062 600.6242065429688 L 256.0049743652344 600.3102416992188 L 256.0157470703125 600.2994995117188 L 256.0271301269531 600.2894287109375 L 256.3773498535156 599.9794311523438 L 256.4256896972656 599.9366455078125 L 256.4833068847656 599.9075317382812 L 256.8737487792969 599.7103271484375 L 256.9001159667969 599.697021484375 L 256.9278564453125 599.6868896484375 L 257.3585205078125 599.52978515625 L 257.4213562011719 599.5068969726562 L 257.4880065917969 599.5012817382812 L 257.9187622070312 599.465087890625 L 257.9396667480469 599.4633178710938 L 257.9606323242188 599.4633178710938 L 258.1175842285156 599.4633178710938 L 258.2298583984375 599.4633178710938 L 258.3313598632812 599.5112915039062 L 258.3494567871094 599.5198974609375 L 258.7166137695312 599.5884399414062 L 258.7579956054688 599.59619140625 L 258.7974853515625 599.6107177734375 L 259.22412109375 599.7677001953125 L 259.2919921875 599.7926635742188 L 259.3500061035156 599.8358154296875 L 259.6640014648438 600.069580078125 L 259.6822509765625 600.0831298828125 L 259.6991882324219 600.0983276367188 L 260.0494079589844 600.4122314453125 L 260.0950622558594 600.453125 L 260.1294860839844 600.5038452148438 L 260.3669738769531 600.8539428710938 L 260.3915100097656 600.89013671875 L 260.409423828125 600.9301147460938 L 260.5660705566406 601.2794189453125 L 260.70458984375 600.970458984375 L 260.7350769042969 600.9025268554688 L 260.7840270996094 600.8463745117188 L 261.0577697753906 600.5325317382812 L 261.0890197753906 600.4967041015625 L 261.1264953613281 600.4674072265625 L 261.4766540527344 600.1934814453125 L 261.4988098144531 600.1761474609375 L 261.5227661132812 600.161376953125 L 261.8367309570312 599.96826171875 L 261.8905944824219 599.9351196289062 L 261.9510192871094 599.9164428710938 L 262.341552734375 599.7957153320312 L 262.4137268066406 599.7734375 L 262.4892272949219 599.7734375 L 262.8796691894531 599.7734375 L 263.0769348144531 599.7734375 L 263.2701110839844 599.7734375 L 263.3538818359375 599.7734375 L 263.4330444335938 599.8007202148438 L 263.7832946777344 599.9214477539062 L 263.8254089355469 599.9359741210938 L 263.8642578125 599.9577026367188 L 264.1379699707031 600.1106567382812 L 264.1681213378906 600.1275024414062 L 264.1956481933594 600.1483154296875 L 264.5096130371094 600.3857421875 L 264.5372314453125 600.4066162109375 L 264.5616760253906 600.4310913085938 L 264.7951354980469 600.6646728515625 L 264.8338317871094 600.703369140625 L 264.8632507324219 600.7495727539062 L 265.060546875 601.0593872070312 L 265.0889892578125 601.1040649414062 L 265.1074523925781 601.1537475585938 L 265.2241516113281 601.4677124023438 L 265.2271423339844 601.4757080078125 L 265.2298278808594 601.4837646484375 L 265.3465881347656 601.833984375 L 265.3722534179688 601.9109497070312 L 265.3722534179688 601.9921264648438 L 265.3722534179688 602.346435546875 L 265.3722534179688 602.688720703125 L 265.3745422363281 602.6846923828125 L 265.3900451660156 602.6571655273438 L 265.4089050292969 602.6317749023438 L 265.6423950195312 602.3177490234375 L 265.6837463378906 602.2621459960938 L 265.7386169433594 602.2199096679688 L 266.0888366699219 601.9502563476562 L 266.107666015625 601.9357299804688 L 266.1277770996094 601.923095703125 L 266.4417419433594 601.7257690429688 L 266.4994506835938 601.6895141601562 L 266.5647277832031 601.6700439453125 L 266.9552001953125 601.5534057617188 L 267.0002136230469 601.5399780273438 L 267.0469055175781 601.5350952148438 L 267.4373474121094 601.4947509765625 L 267.4887390136719 601.4894409179688 L 267.5401306152344 601.4947509765625 L 267.9306030273438 601.5350952148438 L 268.0005187988281 601.5423583984375 L 268.0657348632812 601.5685424804688 L 268.4561767578125 601.7255249023438 L 268.4750366210938 601.733154296875 L 268.4932250976562 601.7422485351562 L 268.8072509765625 601.8992309570312 L 268.8504638671875 601.9208374023438 L 268.8887634277344 601.9503173828125 L 269.2388916015625 602.219970703125 L 269.2781372070312 602.2501831054688 L 269.3106689453125 602.2874755859375 L 269.58447265625 602.6015014648438 L 269.6556091308594 602.68310546875 L 269.6866455078125 602.7868041992188 L 269.8012084960938 603.1697998046875 L 269.9154663085938 603.512939453125 L 269.9335632324219 603.5673217773438 L 269.9389038085938 603.6243286132812 L 269.9791564941406 604.054931640625 L 269.9813232421875 604.078125 L 269.9813232421875 604.1014404296875 L 269.9813232421875 608.5938720703125 L 269.9813232421875 608.6074829101562 L 269.9805908203125 608.6210327148438 L 269.9403381347656 609.361572265625 L 269.9393310546875 609.3798217773438 L 269.93701171875 609.39794921875 L 269.8967590332031 609.7120361328125 L 269.8905639648438 609.7603759765625 L 269.8751525878906 609.806640625 L 269.7652282714844 610.1363525390625 L 267.8591918945312 618.0775756835938 L 267.7149963378906 618.7245483398438 L 267.7149963378906 619.3699340820312 L 267.7149963378906 619.8408203125 L 267.7149963378906 619.883544921875 L 267.707763671875 619.9255981445312 L 267.6683044433594 620.1549682617188 L 267.6326599121094 620.3844604492188 L 267.6130065917969 620.5111083984375 L 267.5348815917969 620.6126708984375 L 267.4141235351562 620.7696533203125 L 267.260009765625 620.9684448242188 L 267.22119140625 621.0184936523438 L 267.1711120605469 621.0573120117188 L 266.9737854003906 621.210205078125 L 266.969970703125 621.213134765625 L 266.9661254882812 621.2160034179688 L 266.8092041015625 621.3328247070312 L 266.7468566894531 621.3792724609375 L 266.67333984375 621.404541015625 L 266.4398193359375 621.4849243164062 L 266.3607482910156 621.5121459960938 Z" stroke="none"/>
      <path d="M 252.4644165039062 592.4423828125 L 252.0336303710938 592.4824829101562 L 251.6834106445312 592.55908203125 L 251.3331909179688 592.7562866210938 L 251.0595397949219 593.0259399414062 L 250.7857971191406 593.3400268554688 L 250.5885620117188 593.6902465820312 L 250.5120849609375 594.04443359375 L 250.4717712402344 594.4710693359375 L 251.0851745605469 610.7393188476562 L 250.4613037109375 610.1959838867188 L 250.4613037109375 606.601318359375 L 250.3445434570312 606.2510375976562 L 250.1473388671875 605.860595703125 L 249.8775634765625 605.5465698242188 L 249.6038513183594 605.2728271484375 L 249.2495727539062 605.07958984375 L 248.859130859375 604.962890625 L 248.0420532226562 604.962890625 L 247.72802734375 605.07958984375 L 247.3375854492188 605.2728271484375 L 247.0638732910156 605.5465698242188 L 246.7901000976562 605.860595703125 L 246.5968933105469 606.210693359375 L 246.4801025390625 606.56103515625 L 246.4398803710938 606.951416015625 L 246.4398803710938 611.0533447265625 L 246.4801025390625 611.484130859375 L 246.5968933105469 611.87451171875 L 246.7901000976562 612.2649536132812 L 247.1040649414062 612.5750732421875 L 252.6470336914062 617.965087890625 L 252.9610290527344 618.35546875 L 253.154296875 618.7863159179688 L 253.311279296875 619.29345703125 L 253.3515625 619.8408203125 L 253.3917846679688 620.0744018554688 L 253.46826171875 620.3078002929688 L 253.5487976074219 620.4647827148438 L 253.7017822265625 620.6620483398438 L 253.8587036132812 620.81494140625 L 254.0922241210938 620.9317626953125 L 254.2894592285156 621.0121459960938 L 266.277099609375 621.0121459960938 L 266.5106201171875 620.9317626953125 L 266.6675415039062 620.81494140625 L 266.8648681640625 620.6620483398438 L 267.1385803222656 620.3078002929688 L 267.1748046875 620.0744018554688 L 267.2149963378906 619.8408203125 L 267.2149963378906 618.6694946289062 L 267.3719787597656 617.965087890625 L 269.2840881347656 609.9986572265625 L 269.4008178710938 609.6484985351562 L 269.4410705566406 609.3344116210938 L 269.4813232421875 608.5938720703125 L 269.4813232421875 604.1014404296875 L 269.4410705566406 603.6708984375 L 269.3244323730469 603.3206176757812 L 269.2076110839844 602.9301147460938 L 268.9338073730469 602.6160888671875 L 268.5836791992188 602.346435546875 L 268.2696533203125 602.189453125 L 267.8792114257812 602.032470703125 L 267.4887390136719 601.9921264648438 L 267.0982971191406 602.032470703125 L 266.7078247070312 602.1491088867188 L 266.3938598632812 602.346435546875 L 266.0436401367188 602.6160888671875 L 265.8101501464844 602.9301147460938 L 265.6129150390625 603.2802124023438 L 265.4961853027344 603.6345825195312 L 265.4559326171875 604.061279296875 L 265.4559326171875 604.6488037109375 L 264.8722534179688 604.6488037109375 L 264.8722534179688 601.9921264648438 L 264.7554931640625 601.6419067382812 L 264.6387939453125 601.3279418945312 L 264.4414978027344 601.0181274414062 L 264.2080383300781 600.7845458984375 L 263.8940734863281 600.547119140625 L 263.620361328125 600.3941650390625 L 263.2701110839844 600.2734375 L 262.4892272949219 600.2734375 L 262.0986938476562 600.3941650390625 L 261.7847290039062 600.5872802734375 L 261.4345703125 600.8612060546875 L 261.1608276367188 601.175048828125 L 261.0038452148438 601.525146484375 L 260.8871154785156 601.8756103515625 L 260.8508911132812 602.2659912109375 L 260.8508911132812 604.6488037109375 L 260.3033752441406 604.6488037109375 L 260.3033752441406 602.3826293945312 L 260.2631530761719 601.9558715820312 L 260.1463623046875 601.5654907226562 L 259.9531860351562 601.1346435546875 L 259.7156982421875 600.7845458984375 L 259.365478515625 600.4706420898438 L 259.0514831542969 600.2369384765625 L 258.6248168945312 600.0799560546875 L 258.1941223144531 599.99951171875 L 258.1175842285156 599.9633178710938 L 257.9606323242188 599.9633178710938 L 257.5298767089844 599.99951171875 L 257.0991821289062 600.1566162109375 L 256.708740234375 600.3538208007812 L 256.3585205078125 600.663818359375 L 256.0445251464844 600.977783203125 L 255.81103515625 601.4085083007812 L 255.7345581054688 601.835205078125 L 255.6943359375 602.2659912109375 L 255.6943359375 604.6488037109375 L 255.110595703125 604.6488037109375 L 254.4971923828125 594.5114135742188 L 254.4569702148438 594.08056640625 L 254.3402404785156 593.7303466796875 L 254.1430053710938 593.3400268554688 L 253.8692321777344 593.0259399414062 L 253.5955200195312 592.7562866210938 L 253.2453002929688 592.55908203125 L 252.8548583984375 592.4824829101562 L 252.4644165039062 592.4423828125 M 252.4691772460938 591.4376220703125 L 253.0025024414062 591.4923706054688 L 253.5957336425781 591.6087646484375 L 254.2023315429688 591.9503173828125 L 254.5981140136719 592.3402099609375 L 254.9790649414062 592.7772827148438 L 255.2657775878906 593.3446655273438 L 255.4419860839844 593.873291015625 L 255.495361328125 594.4509887695312 L 255.8193664550781 599.8056030273438 L 256.1426391601562 599.5194091796875 L 256.7010192871094 599.2373657226562 L 257.3128662109375 599.0142211914062 L 257.918701171875 598.9633178710938 L 258.3421325683594 598.9633178710938 L 258.5047912597656 599.0402221679688 L 258.8911437988281 599.1124267578125 L 259.5325317382812 599.348388671875 L 259.9990234375 599.6956176757812 L 260.4744262695312 600.1217041015625 L 260.5961303710938 600.3011474609375 L 260.7434692382812 600.1322021484375 L 261.212890625 599.7650146484375 L 261.6824951171875 599.4761352539062 L 262.3381958007812 599.2734375 L 263.4376220703125 599.2734375 L 264.0304260253906 599.477783203125 L 264.4421691894531 599.7078247070312 L 264.8663940429688 600.0286865234375 L 265.2261962890625 600.388671875 L 265.5392150878906 600.8801879882812 L 265.7041625976562 601.3256225585938 L 265.7810363769531 601.5562133789062 L 265.8214721679688 601.5250854492188 L 266.2910461425781 601.2299194335938 L 266.902099609375 601.0474243164062 L 267.4887390136719 600.98681640625 L 268.121826171875 601.05224609375 L 268.680419921875 601.2767944335938 L 269.1172790527344 601.4951782226562 L 269.6224365234375 601.8842163085938 L 270.1036071777344 602.4360961914062 L 270.278076171875 603.0193481445312 L 270.4260559082031 603.4636840820312 L 270.4813232421875 604.0548095703125 L 270.4798583984375 608.6481323242188 L 270.4376220703125 609.4252319335938 L 270.3803100585938 609.872314453125 L 270.2463989257812 610.2740478515625 L 268.3462524414062 618.1906127929688 L 268.2149963378906 618.779541015625 L 268.2149963378906 619.9262084960938 L 268.1617126464844 620.2359008789062 L 268.0874633789062 620.71435546875 L 267.5775146484375 621.3749389648438 L 267.2647094726562 621.6170654296875 L 266.9830932617188 621.8267211914062 L 266.4443969726562 622.0121459960938 L 254.0935363769531 622.0121459960938 L 253.6792297363281 621.8433227539062 L 253.272216796875 621.6397094726562 L 252.9541320800781 621.3297729492188 L 252.7015380859375 621.0040893554688 L 252.5425415039062 620.694091796875 L 252.418701171875 620.3162231445312 L 252.3578186035156 619.962646484375 L 252.3223266601562 619.4804077148438 L 252.2169799804688 619.1400756835938 L 252.1012268066406 618.8820190429688 L 251.9061279296875 618.6394653320312 L 246.4013366699219 613.2864990234375 L 245.9681396484375 612.858642578125 L 245.6631164550781 612.2421875 L 245.49365234375 611.67578125 L 245.4398803710938 611.0999145507812 L 245.4398803710938 606.9000244140625 L 245.4966430664062 606.34912109375 L 245.6771545410156 605.8076171875 L 245.9661865234375 605.283935546875 L 246.3567199707031 604.8394775390625 L 246.7466735839844 604.4495239257812 L 247.3310241699219 604.1602783203125 L 247.8622741699219 603.962890625 L 249.00537109375 603.962890625 L 249.6363830566406 604.1514892578125 L 249.8402709960938 604.2626953125 L 249.4700012207031 594.4427490234375 L 249.5220947265625 593.891357421875 L 249.6430053710938 593.3313598632812 L 249.9646911621094 592.7601318359375 L 250.3306274414062 592.3402709960938 L 250.726318359375 591.9503784179688 L 251.3233642578125 591.6141967773438 L 251.8798828125 591.4924926757812 L 252.4691772460938 591.4376220703125 Z" stroke="none" fill="#000"/>
    </g>
    <g id="debug_tint" transform="translate(2855 1300)">
      <rect id="iconBase" width="40" height="40" transform="translate(457 60)" fill="none"/>
    </g>
  </g>
</svg>
