<svg id="options_dark" xmlns="http://www.w3.org/2000/svg" width="18" height="18" viewBox="0 0 18 18">
  <rect id="iconBase" width="18" height="18" fill="none"/>
  <path id="cog" d="M33.765,18.022l-1.374-.794a6.214,6.214,0,0,0,0-2.265l1.374-.794a.39.39,0,0,0,.177-.452,8.034,8.034,0,0,0-1.765-3.052.388.388,0,0,0-.477-.074l-1.374.794a6.088,6.088,0,0,0-1.961-1.132V8.67a.386.386,0,0,0-.3-.377,8.109,8.109,0,0,0-3.523,0,.386.386,0,0,0-.3.377v1.587a6.28,6.28,0,0,0-1.961,1.132L20.9,10.6a.383.383,0,0,0-.477.074,7.986,7.986,0,0,0-1.765,3.052.386.386,0,0,0,.177.452l1.374.794a6.214,6.214,0,0,0,0,2.265l-1.374.794a.39.39,0,0,0-.177.452,8.034,8.034,0,0,0,1.765,3.052.388.388,0,0,0,.477.074l1.374-.794a6.088,6.088,0,0,0,1.961,1.132v1.587a.386.386,0,0,0,.3.377,8.109,8.109,0,0,0,3.523,0,.386.386,0,0,0,.3-.377V21.941a6.28,6.28,0,0,0,1.961-1.132L31.7,21.6a.383.383,0,0,0,.477-.074,7.986,7.986,0,0,0,1.765-3.052A.4.4,0,0,0,33.765,18.022Zm-7.464.655A2.581,2.581,0,1,1,28.881,16.1,2.584,2.584,0,0,1,26.3,18.676Z" transform="translate(-17.644 -7.099)" fill="#FFFFFF"/>
</svg>
