<svg xmlns="http://www.w3.org/2000/svg" width="40" height="40" viewBox="0 0 40 40">
  <g id="sort_by_dark" transform="translate(-249 -123)">
    <path id="Path_5356" data-name="Path 5356" d="M-2034.661-750.25h-16.145l-.3-.051-.246-.149-.251-.2-.148-.245-.149-.251-.1-.247v-3.584l.1-.3.149-.2.148-.246.251-.2.246-.148.3-.1h10.9l.034.106.149.466.3.384.11.141.142.182.094.123.108.112,4.3,4.4Zm-5.537-11.893h-10.361l-.247-.046-.3-.051-.246-.148-.251-.2-.148-.246-.149-.251-.1-.246v-3.533l.1-.3.149-.2.148-.251.251-.2.246-.149.3-.1.247-.051h15.28v2.829a5.283,5.283,0,0,0-2.865.9A7.027,7.027,0,0,0-2040.2-762.144Zm4.919-11.938h-15.527l-.3-.051-.246-.149-.251-.2-.148-.245-.149-.251-.1-.246v-3.584l.1-.3.149-.2.148-.247.251-.2.246-.148.3-.1h15.758a4.022,4.022,0,0,0-.231,1.349v4.569Z" transform="translate(2305 908.125)" fill="#a8a8a8"/>
    <g id="Group_3570" data-name="Group 3570" transform="translate(268.973 128.165)">
      <path id="Union_20" data-name="Union 20" d="M8.965,29.373H8.772l-.189-.04-.228-.114-.193-.153L.342,21.057l-.148-.193-.119-.149L0,20.483v-.417l.075-.232.119-.188.148-.154L.5,19.339l.193-.114.228-.075.189-.04H6.171V1a1,1,0,0,1,1-1h3.622a1,1,0,0,1,1,1v18.11H16.86l.229.04.228.075.153.114.194.153.153.154.114.188.035.232v.417l-.035.232-.114.149-.153.193-7.9,8.009-.193.153-.153.114-.229.04Z" transform="translate(0 0)" fill="#a8a8a8"/>
    </g>
    <path id="Icon_Base" d="M0,0H40V40H0Z" transform="translate(249 123)" fill="none"/>
  </g>
</svg>
