<svg id="toggleCheck_dark" xmlns="http://www.w3.org/2000/svg" width="18" height="18" viewBox="0 0 18 18">
  <rect id="Icon_Base" width="18" height="18" fill="none"/>
  <path id="check" d="M223.468,24.278l.117.158.079.137.038.176.02.156-.02.2-.038.156-.079.158-.117.117-6.53,6.647L215.7,33.415l-.117.117-.158.079-.156.038-.178.02-.176-.02-.158-.038-.135-.079-.137-.117-1.237-1.235-3.274-3.335-.1-.117-.079-.156-.059-.158-.02-.2.02-.158.059-.176.079-.137.1-.137,1.237-1.255.117-.117.156-.079.158-.038.176-.02.178.02.156.038.137.079.137.117,2.666,2.706,5.922-6.019.137-.117.158-.079.137-.059h.352l.178.059.137.079.135.117,1.217,1.235Z" transform="translate(-207.723 -19.229)" fill="#2497e3" fill-rule="evenodd"/>
</svg>
